Coordinates
version=1
nRows=30
nColumns=23
inDegrees=yes

Units are S.I. units (second, meters, Newtons, ...)
If the header above contains a line with 'inDegrees', this indicates whether rotational values are in degrees (yes) or radians (no).

endheader
time	pelvis_tilt	pelvis_list	pelvis_rotation	pelvis_tx	pelvis_ty	pelvis_tz	hip_flexion_r	hip_adduction_r	hip_rotation_r	knee_angle_r	knee_angle_r_beta	ankle_angle_r	subtalar_angle_r	mtp_angle_r	hip_flexion_l	hip_adduction_l	hip_rotation_l	knee_angle_l	knee_angle_l_beta	ankle_angle_l	subtalar_angle_l	mtp_angle_l
     22.50000000	     -1.67337331	      6.55604007	     12.54204119	      2.26514407	      0.93486109	      1.02178294	      0.51416951	    -11.26127077	    -15.88874680	     84.58687466	      1.47631947	     -8.45316577	    -15.03148465	      0.00000000	     27.20247027	     14.15456446	      1.63096111	     36.82783695	      0.64276701	      7.34802810	    -11.94018056	      0.00000000
     22.50666667	     -1.81330961	      6.90643801	     12.94321896	      2.26355952	      0.93091438	      1.02065898	      2.65541476	    -12.31977225	    -15.58975361	     87.20917185	      1.52208719	     -7.88886687	    -16.04087137	      0.00000000	     27.13411556	     14.76818400	      2.23330650	     39.29358324	      0.68580240	      8.91989711	    -12.69221758	      0.00000000
     22.51333333	     -1.95192969	      7.20304799	     13.25071515	      2.26200521	      0.92754418	      1.01961607	      4.89678487	    -13.31290261	    -15.10657133	     89.51688412	      1.56236436	     -7.29865424	    -17.01494875	      0.00000000	     26.81498658	     15.28487514	      2.83455392	     41.35634039	      0.72180431	     10.64756990	    -13.20182216	      0.00000000
     22.52000000	     -2.10337953	      7.44380214	     13.38390653	      2.26041931	      0.92478493	      1.01880159	      7.30652915	    -14.19507732	    -14.34504812	     91.51464931	      1.59723194	     -6.64719276	    -17.89533772	      0.00000000	     26.26254781	     15.66153677	      3.36127061	     42.97268172	      0.75001478	     12.45748838	    -13.52473502	      0.00000000
     22.52666667	     -2.23522808	      7.61314670	     13.38174780	      2.25888702	      0.92268113	      1.01815862	      9.80821095	    -14.91507150	    -13.37570605	     93.15729135	      1.62590146	     -5.96740936	    -18.69190213	      0.00000000	     25.45262079	     15.87057421	      3.80474339	     44.16721171	      0.77086327	     14.24973369	    -13.66818770	      0.00000000
     22.53333333	     -2.32903025	      7.70816941	     13.21426547	      2.25742085	      0.92125501	      1.01773631	     12.37870186	    -15.43422428	    -12.20645512	     94.43680710	      1.64823322	     -5.28907921	    -19.35487884	      0.00000000	     24.38233105	     15.90165556	      4.15993763	     44.94888776	      0.78450609	     15.98222826	    -13.68337167	      0.00000000
     22.54000000	     -2.42703753	      7.70843982	     12.87884423	      2.25601434	      0.92045863	      1.01760749	     15.04054428	    -15.71660655	    -10.87295562	     95.33865451	      1.66397343	     -4.58916386	    -19.86564810	      0.00000000	     23.13031919	     15.73372698	      4.39703041	     45.34314161	      0.79138711	     17.56435405	    -13.56736452	      0.00000000
     22.54666667	     -2.54626522	      7.61012008	     12.44719083	      2.25474737	      0.92023805	      1.01760054	     17.74115420	    -15.77186330	     -9.49117446	     95.85095497	      1.67291476	     -3.87377242	    -20.21856337	      0.00000000	     21.72609686	     15.39836900	      4.54852032	     45.38987705	      0.79220280	     18.99632387	    -13.34400785	      0.00000000
     22.55333333	     -2.68202919	      7.44989516	     11.91638264	      2.25352162	      0.92050070	      1.01778727	     20.44628373	    -15.61278091	     -8.06534198	     95.99805979	      1.67548222	     -3.19133032	    -20.40380562	      0.00000000	     20.20531181	     14.94394326	      4.60534734	     45.14329662	      0.78789916	     20.23385881	    -13.01337095	      0.00000000
     22.56000000	     -2.71639266	      7.23917556	     11.28709376	      2.25254866	      0.92153948	      1.01811832	     22.93754507	    -15.25483238	     -6.68759669	     95.71451361	      1.67053340	     -2.51284319	    -20.37741972	      0.00000000	     18.38444972	     14.37377180	      4.60211244	     44.51123128	      0.77686754	     21.10900402	    -12.80136343	      0.00000000
     22.56666667	     -2.94548471	      6.95678375	     10.59137560	      2.25162258	      0.92271599	      1.01867044	     25.58333927	    -14.71782559	     -5.32286080	     95.12013585	      1.66015956	     -1.83605192	    -20.23622633	      0.00000000	     16.72757224	     13.69296635	      4.38342065	     43.72505257	      0.76314613	     21.87850032	    -12.26617232	      0.00000000
     22.57333333	     -3.07457898	      6.64438109	      9.89558083	      2.25093528	      0.92461815	      1.01919719	     27.90336712	    -14.07170327	     -4.13958010	     94.10518585	      1.64244534	     -1.14238640	    -19.88916498	      0.00000000	     14.79668148	     13.00800262	      4.25717298	     42.60642375	      0.74362238	     22.16390941	    -12.05442891	      0.00000000
     22.58000000	     -3.28806884	      6.30077490	      9.16292302	      2.25043714	      0.92680065	      1.01987905	     30.15848529	    -13.31102389	     -3.05438454	     92.76400709	      1.61903735	     -0.43726315	    -19.41346381	      0.00000000	     12.88765885	     12.27273749	      3.98855399	     41.30440795	      0.72089791	     22.14311238	    -11.72545735	      0.00000000
     22.58666667	     -3.48620505	      5.90934023	      8.44489393	      2.25017971	      0.92945233	      1.02062151	     32.16526070	    -12.46717818	     -2.17204295	     91.05293095	      1.58917344	      0.22840855	    -18.86463180	      0.00000000	     10.89054600	     11.47770482	      3.65000891	     39.82795613	      0.69512897	     21.81627916	    -11.28876367	      0.00000000
     22.59333333	     -3.84981405	      5.46909959	      7.82619239	      2.25009531	      0.93223462	      1.02127309	     34.12065026	    -11.63018609	     -1.53092427	     89.02902169	      1.55384956	      0.88606284	    -18.27061590	      0.00000000	      9.05039165	     10.68814429	      3.33235013	     38.26636696	      0.66787410	     21.05217436	    -10.84086467	      0.00000000
     22.60000000	     -3.43131751	      4.77931365	      7.26461047	      2.25071333	      0.93672319	      1.02189786	     34.76523545	    -10.52419900	     -1.43156944	     86.40178531	      1.50799563	      1.44930660	    -17.79082730	      0.00000000	      6.20380052	      9.51534775	      3.07227512	     36.36453839	      0.63468093	     20.03188739	    -10.37308772	      0.00000000
     22.60666667	     -3.73859833	      4.33337536	      6.60555357	      2.25118423	      0.94014945	      1.02271263	     36.20719320	     -9.65754706	     -1.07922709	     83.76115746	      1.46190798	      2.05404231	    -17.21050409	      0.00000000	      4.21602902	      8.72115480	      2.52515343	     34.51956408	      0.60248005	     18.56902954	    -10.00627726	      0.00000000
     22.61333333	     -3.69497451	      3.72283676	      6.08133583	      2.25210976	      0.94447016	      1.02330265	     36.89030968	     -8.74410501	     -1.19443599	     80.65356586	      1.40767028	      2.55078147	    -16.78381709	      0.00000000	      1.76765400	      7.77504069	      2.17185216	     32.47067056	      0.56672011	     16.72228634	     -9.76460941	      0.00000000
     22.62000000	     -3.59108574	      2.94572442	      5.86464910	      2.25338015	      0.94911782	      1.02343037	     37.15795696	     -7.94233432	     -1.87332030	     77.18043319	      1.34705268	      2.91976219	    -16.49017562	      0.00000000	     -0.70406616	      6.67487075	      2.01699029	     30.42099912	      0.53094660	     14.46771395	     -9.49881464	      0.00000000
     22.62666667	     -3.70040720	      2.34939165	      5.48481875	      2.25471238	      0.95336996	      1.02383625	     37.57880857	     -7.23546517	     -2.39735926	     73.58243670	      1.28425579	      3.29300647	    -16.21369193	      0.00000000	     -2.89903082	      5.80361454	      1.57484011	     28.37677835	      0.49526821	     11.92779634	     -9.27134619	      0.00000000
     22.63333333	     -3.85034225	      1.74807759	      5.16877539	      2.25620739	      0.95755304	      1.02414523	     37.83624239	     -6.61453460	     -3.14491895	     69.75393306	      1.21743580	      3.63133889	    -15.91992240	      0.00000000	     -4.95736091	      4.94728350	      1.06495678	     26.41510998	      0.46103064	      9.09390429	     -9.09041552	      0.00000000
     22.64000000	     -4.04492778	      1.19557461	      4.86909766	      2.25779680	      0.96158573	      1.02448230	     37.97126399	     -6.06648651	     -4.01531675	     65.73748086	      1.14733548	      3.93184020	    -15.61451186	      0.00000000	     -6.86136279	      4.17231268	      0.49692568	     24.57072103	      0.42883998	      6.02307415	     -8.91336081	      0.00000000
     22.64666667	     -4.31160645	      0.72728823	      4.56387969	      2.25948086	      0.96536736	      1.02480262	     38.03049699	     -5.62533322	     -4.99327121	     61.56855160	      1.07457394	      4.23784004	    -15.21069825	      0.00000000	     -8.54602699	      3.50572626	     -0.21923000	     22.91846611	      0.40000269	      2.80786547	     -8.75524989	      0.00000000
     22.65333333	     -4.56469176	      0.25832900	      4.31836445	      2.26123559	      0.96901767	      1.02510040	     37.89577398	     -5.21604357	     -6.17936468	     57.23004845	      0.99885278	      4.54457767	    -14.56151671	      0.00000000	    -10.06687330	      2.84898301	     -0.94888881	     21.52113140	      0.37561460	     -0.53438209	     -8.66177332	      0.00000000
     22.66000000	     -5.56001989	      0.23304407	      3.90659933	      2.26255432	      0.97111342	      1.02581303	     38.67133915	     -5.09856718	     -6.97420744	     53.11300570	      0.92699683	      4.94386463	    -13.62613059	      0.00000000	    -10.39406348	      2.69047673	     -2.07883466	     20.84886026	      0.36388126	     -3.70430837	     -8.27348930	      0.00000000
     22.66666667	     -5.10528638	     -0.53109880	      3.86690448	      2.26477538	      0.97557001	      1.02588193	     37.24800269	     -4.46973079	     -8.92848272	     48.26380859	      0.84236237	      5.29384969	    -12.26237539	      0.00000000	    -12.44198139	      1.70323893	     -2.59231615	     19.71985534	      0.34417640	     -7.25029249	     -8.70793562	      0.00000000
     22.67333333	     -5.35455961	     -0.86609383	      3.64838602	      2.26651122	      0.97839453	      1.02643206	     36.73633128	     -4.06493681	    -10.45115832	     43.73962178	      0.76340041	      5.82966841	    -10.41853027	      0.00000000	    -13.29737549	      1.18273459	     -3.48204075	     19.42284094	      0.33899252	    -10.42201799	     -8.90299216	      0.00000000
     22.68000000	     -6.31284608	     -0.72655603	      3.13340952	      2.26771329	      0.97960878	      1.02769365	     37.17581891	     -3.76270388	    -11.17874077	     39.56989908	      0.69062502	      6.36903497	     -8.71531938	      0.00000000	    -13.03419802	      1.21153348	     -4.64139585	     19.82268813	      0.34597117	    -13.29023979	     -9.04158813	      0.00000000
     22.68666667	     -5.84658300	     -1.42281127	      3.14595785	      2.26965063	      0.98283491	      1.02814521	     35.52144137	     -2.94042714	    -13.27919828	     34.88105713	      0.60878929	      7.11298764	     -5.79976675	      0.00000000	    -14.27057194	      0.23388782	     -5.22330906	     20.17698748	      0.35215486	    -15.99602343	     -9.68892678	      0.00000000
     22.69333333	     -6.12755229	     -1.62640678	      2.82491904	      2.27090870	      0.98425609	      1.02934137	     34.94229199	     -2.19809003	    -14.33344336	     30.71171948	      0.53602062	      7.81767136	     -3.24306170	      0.00000000	    -14.33363698	     -0.17825078	     -6.04999555	     21.28896462	      0.37156253	    -18.22922989	    -10.25002632	      0.00000000
